<svg xmlns="http://www.w3.org/2000/svg" width="1600" height="900" viewBox="0 0 1600 900">
  <defs>
    <linearGradient id="bgA" x1="0" y1="0" x2="1" y2="1">
      <stop offset="0" stop-color="#0b1a2d"/>
      <stop offset="1" stop-color="#133456"/>
    </linearGradient>
    <linearGradient id="panelA" x1="0" y1="0" x2="0" y2="1">
      <stop offset="0" stop-color="#d6e5f9"/>
      <stop offset="1" stop-color="#b6d0ef"/>
    </linearGradient>
    <filter id="shadowA" x="-20%" y="-20%" width="140%" height="140%">
      <feDropShadow dx="0" dy="8" stdDeviation="8" flood-color="#05101d" flood-opacity="0.35"/>
    </filter>
  </defs>
  <rect width="1600" height="900" fill="url(#bgA)"/>
  <rect x="70" y="60" width="1460" height="120" rx="24" fill="#dbe9fa" fill-opacity="0.95" filter="url(#shadowA)"/>
  <text x="120" y="140" font-family="Segoe UI, Arial, sans-serif" font-size="66" font-weight="700" fill="#10243f">JimRooney Ops Deck</text>
  <text x="120" y="170" font-family="Segoe UI, Arial, sans-serif" font-size="24" fill="#36587d">Aviation-first quick launch dashboard</text>
  <rect x="70" y="220" width="1460" height="610" rx="28" fill="#153456" fill-opacity="0.45" stroke="#6f95c5" stroke-width="2"/>
  <g font-family="Segoe UI, Arial, sans-serif" font-size="34" font-weight="700" fill="#0e2440" text-anchor="middle">
    <rect x="120" y="280" width="300" height="140" rx="24" fill="url(#panelA)"/><text x="270" y="365">Roster</text>
    <rect x="450" y="280" width="300" height="140" rx="24" fill="url(#panelA)"/><text x="600" y="365">FMS</text>
    <rect x="780" y="280" width="300" height="140" rx="24" fill="url(#panelA)"/><text x="930" y="365">Webcams</text>
    <rect x="1110" y="280" width="300" height="140" rx="24" fill="url(#panelA)"/><text x="1260" y="365">Daily Ops</text>
    <rect x="120" y="460" width="300" height="140" rx="24" fill="url(#panelA)"/><text x="270" y="545">Wind</text>
    <rect x="450" y="460" width="300" height="140" rx="24" fill="url(#panelA)"/><text x="600" y="545">Max</text>
    <rect x="780" y="460" width="300" height="140" rx="24" fill="url(#panelA)"/><text x="930" y="545">Datastore</text>
    <rect x="1110" y="460" width="300" height="140" rx="24" fill="url(#panelA)"/><text x="1260" y="545">Calendar</text>
    <rect x="120" y="640" width="300" height="140" rx="24" fill="url(#panelA)"/><text x="270" y="725">Mail</text>
    <rect x="450" y="640" width="300" height="140" rx="24" fill="url(#panelA)"/><text x="600" y="725">Messages</text>
    <rect x="780" y="640" width="300" height="140" rx="24" fill="url(#panelA)"/><text x="930" y="725">SkySeat</text>
    <rect x="1110" y="640" width="300" height="140" rx="24" fill="url(#panelA)"/><text x="1260" y="725">ChatGPT</text>
  </g>
</svg>
