<svg xmlns="http://www.w3.org/2000/svg" width="1600" height="900" viewBox="0 0 1600 900">
  <defs>
    <pattern id="grid" width="30" height="30" patternUnits="userSpaceOnUse">
      <path d="M 30 0 L 0 0 0 30" fill="none" stroke="#1f3d57" stroke-width="1"/>
    </pattern>
  </defs>
  <rect width="1600" height="900" fill="#0f2234"/>
  <rect width="1600" height="900" fill="url(#grid)" opacity="0.5"/>
  <rect x="50" y="50" width="1500" height="800" rx="18" fill="none" stroke="#63b0df" stroke-width="3"/>
  <text x="90" y="130" font-family="Consolas, 'Courier New', monospace" font-size="56" fill="#9ad9ff">JIMROONEY // FLIGHT OPS GRID</text>
  <text x="92" y="168" font-family="Consolas, 'Courier New', monospace" font-size="22" fill="#6fb9e8">quick-launch system / tactical panel / low-distraction</text>
  <g font-family="Consolas, 'Courier New', monospace" font-size="27" fill="#a9e4ff" text-anchor="middle">
    <rect x="110" y="230" width="240" height="92" rx="10" fill="#143049" stroke="#62addb"/><text x="230" y="287">ROSTER</text>
    <rect x="380" y="230" width="240" height="92" rx="10" fill="#143049" stroke="#62addb"/><text x="500" y="287">FMS</text>
    <rect x="650" y="230" width="240" height="92" rx="10" fill="#143049" stroke="#62addb"/><text x="770" y="287">WEBCAMS</text>
    <rect x="920" y="230" width="240" height="92" rx="10" fill="#143049" stroke="#62addb"/><text x="1040" y="287">DAILY_OPS</text>
    <rect x="1190" y="230" width="300" height="92" rx="10" fill="#143049" stroke="#62addb"/><text x="1340" y="287">WEATHER_WIND</text>
    <rect x="110" y="350" width="240" height="92" rx="10" fill="#143049" stroke="#62addb"/><text x="230" y="407">MAX</text>
    <rect x="380" y="350" width="240" height="92" rx="10" fill="#143049" stroke="#62addb"/><text x="500" y="407">DATASTORE</text>
    <rect x="650" y="350" width="240" height="92" rx="10" fill="#143049" stroke="#62addb"/><text x="770" y="407">CALENDAR</text>
    <rect x="920" y="350" width="240" height="92" rx="10" fill="#143049" stroke="#62addb"/><text x="1040" y="407">MAIL</text>
    <rect x="1190" y="350" width="300" height="92" rx="10" fill="#143049" stroke="#62addb"/><text x="1340" y="407">MESSAGES</text>
    <rect x="110" y="470" width="240" height="92" rx="10" fill="#143049" stroke="#62addb"/><text x="230" y="527">SKYSEAT</text>
    <rect x="380" y="470" width="240" height="92" rx="10" fill="#143049" stroke="#62addb"/><text x="500" y="527">SST</text>
    <rect x="650" y="470" width="240" height="92" rx="10" fill="#143049" stroke="#62addb"/><text x="770" y="527">WORLDCLOCK</text>
    <rect x="920" y="470" width="240" height="92" rx="10" fill="#143049" stroke="#62addb"/><text x="1040" y="527">CHATGPT</text>
    <rect x="1190" y="470" width="300" height="92" rx="10" fill="#143049" stroke="#62addb"/><text x="1340" y="527">EXTRAS</text>
  </g>
  <rect x="110" y="610" width="1380" height="180" rx="12" fill="#13293f" stroke="#62addb"/>
  <text x="130" y="655" font-family="Consolas, 'Courier New', monospace" font-size="20" fill="#7fc3ed">NOTES</text>
  <text x="130" y="692" font-family="Consolas, 'Courier New', monospace" font-size="24" fill="#9ad9ff">- icon-first links for frequent tasks</text>
  <text x="130" y="726" font-family="Consolas, 'Courier New', monospace" font-size="24" fill="#9ad9ff">- edit mode for rapid customization</text>
  <text x="130" y="760" font-family="Consolas, 'Courier New', monospace" font-size="24" fill="#9ad9ff">- compact, cockpit-style visual language</text>
</svg>
